<svg version="1.1" id="Layer_1" xmlns="http://www.w3.org/2000/svg" xmlns:xlink="http://www.w3.org/1999/xlink" x="0px" y="0px" viewBox="0 0 169 67.6" style="enable-background:new 0 0 169 67.6;" xml:space="preserve">
 <style type="text/css">
  .st0{fill:#152C73;}
	.st1{fill:#FFFFFF;}
 </style>
 <g>
  <g>
   <path class="st0" d="M84.5,0C37.8,0,0,15.1,0,33.8c0,18.6,37.8,33.8,84.5,33.8S169,52.4,169,33.8C169,15.1,131.2,0,84.5,0">
   </path>
   <path class="st1" d="M84.5,3.8c-45.2,0-81.9,13.5-81.9,30c0,16.5,36.6,29.9,81.9,29.9s81.9-13.5,81.9-29.9
			C166.4,17.3,129.7,3.8,84.5,3.8 M84.5,61.8c-44.6,0-80.7-12.6-80.7-28c0-15.4,36.1-28,80.7-28s80.7,12.6,80.7,28
			C165.2,49.1,129.1,61.8,84.5,61.8 M65.7,38.1C65,39.2,63.5,41,62.4,41c-0.3,0-0.5-0.2-0.5-0.5c0-0.5,0.2-1,0.2-1l4.6-12.9h-3.8
			L62.4,28c-0.7-1.1-1.6-1.5-2.7-1.5c-4.4,0-11.7,6.4-11.7,12.9c0,2.8,1.7,4.4,4,4.4s4.4-1.9,5.9-4.2H58c-0.1,0.4-0.2,1-0.2,1.6
			c0,1.4,0.7,2.5,2.1,2.5c3.2,0,5.9-4.2,6.8-5.6H65.7z M61.2,31.2c0,0-1.2,3-2.5,5.3c-1,1.9-3.3,4.8-4.9,4.8c-1.2,0-1.8-0.8-1.8-2.3
			c0-4.8,5.1-11.4,8-11.4c1,0,1.5,0.8,1.5,1.9C61.5,30.1,61.4,30.6,61.2,31.2 M118.6,41.9c-2.1,0-3.1-1.6-3.1-3.3
			c0-0.6,0.1-1.5,0.2-2c8.2-0.3,11.9-3.2,11.9-6.4c0-2.3-1.9-3.9-4.9-3.9c-6.8,0-11.4,6.4-11.4,11.8c0,3.8,2.3,5.8,6.1,5.8
			c3.7,0,7.3-2.9,8.8-5.3h-1C123.9,39.9,121.5,41.9,118.6,41.9 M122.2,27.4c1.3,0,1.8,1,1.8,2.1c0,1.7-2.2,5.8-8.1,5.9
			C116.5,31.9,119.2,27.4,122.2,27.4 M72.7,43.3H69c0,0,3.2-9,4.1-12.1c0.2-0.6,0.3-1.2,0.3-1.5c0-0.2-0.1-0.4-0.4-0.4
			c-0.4,0-1.3,0.4-3.1,2.9h-1c2.1-3.4,4.7-5.7,6.5-5.7c1.2,0,1.7,0.7,1.7,1.7c0,0.7-0.3,2.1-1.1,5c3.4-6.1,5.5-7,6.9-6.9
			c1.4,0,2.2,1,2.2,2.1c0,1.2-1,2.7-2.4,2.7c-1,0-1.6-0.7-1.6-2v-0.4c-1,0.5-3.4,2.7-6.4,10L72.7,43.3z M47.5,21
			c-0.6-0.2-1.4-0.3-2.1-0.3c-7.5,0-14.1,7.3-14.1,14.6c0,5.4,3.3,6.8,6,6.8c3.2,0,5.4-1.2,7.5-3.1h1.1c-1.6,2.2-5,5-9.9,5
			c-6.7,0-9.3-4.1-9.3-8.7c0-8.7,9.2-16,18.9-16c3.8,0,5.9,1.4,5.9,3.3c0,1.2-0.9,2.3-2.4,2.3c-1.2,0-2.2-0.7-2.2-2.1
			C47,22.3,47.2,21.6,47.5,21 M105.2,26.6h3.8l-4.5,12.7c-0.1,0.2-0.3,0.8-0.3,1.4c0,0.4,0.2,0.6,0.5,0.6c1,0,2.8-1.6,3.8-3.1h1
			c-1.7,2.8-4.7,5.7-7.4,5.7c-1.3,0-2.1-0.8-2.1-2c0-0.7,0.2-1.9,0.9-3.7L105.2,26.6z M110.6,21.7c0,1.6-1.4,3.2-2.9,3.2
			c-0.9,0-1.6-0.6-1.6-1.7c0-1.6,1.4-3.2,2.9-3.2C109.9,19.9,110.6,20.5,110.6,21.7 M89.2,43.3h-3.8c0,0,3.2-9,4.1-12.1
			c0.2-0.6,0.3-1.2,0.3-1.5c0-0.2-0.1-0.4-0.4-0.4c-0.4,0-1.4,0.4-3.1,2.9h-1c2.1-3.4,4.7-5.7,6.5-5.7c1.2,0,1.7,0.7,1.7,1.7
			c0,0.7-0.3,2.1-1.1,5c3.4-6.1,5.5-7,6.9-6.9c1.4,0,2.2,1,2.2,2.1c0,1.2-1,2.7-2.4,2.7c-1,0-1.6-0.7-1.6-2v-0.4
			c-1,0.5-3.4,2.7-6.4,10L89.2,43.3z M133.4,43.3h-3.8c0,0,3.2-9,4.1-12.1c0.2-0.6,0.3-1.2,0.3-1.5c0-0.2-0.1-0.4-0.4-0.4
			c-0.4,0-1.4,0.4-3.1,2.9h-1c2.1-3.4,4.7-5.7,6.5-5.7c1.2,0,1.7,0.7,1.7,1.7c0,0.7-0.3,2.1-1.1,5c3.4-6.1,5.5-7,6.9-6.9
			c1.4,0,2.2,1,2.2,2.1c0,1.2-1,2.7-2.4,2.7c-1,0-1.6-0.7-1.6-2v-0.4c-1,0.5-3.4,2.7-6.4,10L133.4,43.3z">
   </path>
  </g>
 </g>
</svg>